<svg width="56" height="56" viewBox="0 0 56 56" fill="none" xmlns="http://www.w3.org/2000/svg">
<path d="M40.2013 15.7985L39.4602 15.6834C39.4235 15.9198 39.5018 16.1596 39.671 16.3289C39.8402 16.4981 40.08 16.5764 40.3165 16.5396L40.2013 15.7985ZM37.7829 22.5479L38.343 22.0491C38.2057 21.895 38.011 21.8042 37.8046 21.7982C37.5983 21.7923 37.3986 21.8716 37.2526 22.0176L37.7829 22.5479ZM22.5479 37.7829L22.0176 37.2526C21.8716 37.3986 21.7923 37.5983 21.7982 37.8046C21.8042 38.011 21.895 38.2057 22.0491 38.343L22.5479 37.7829ZM15.7985 40.2013L16.5396 40.3165C16.5764 40.08 16.4981 39.8402 16.3289 39.671C16.1596 39.5018 15.9198 39.4235 15.6834 39.4602L15.7985 40.2013ZM18.2169 33.4519L17.6568 33.9507C17.7941 34.1049 17.9889 34.1956 18.1952 34.2016C18.4016 34.2076 18.6013 34.1282 18.7472 33.9822L18.2169 33.4519ZM33.4519 18.2169L33.9822 18.7472C34.1282 18.6013 34.2076 18.4016 34.2016 18.1952C34.1956 17.9889 34.1049 17.7941 33.9507 17.6568L33.4519 18.2169ZM40.9424 15.9137C40.9803 15.6697 40.9999 15.4202 40.9999 15.1666H39.4999C39.4999 15.3428 39.4863 15.5154 39.4602 15.6834L40.9424 15.9137ZM40.8333 14.9999C40.5796 14.9999 40.3301 15.0195 40.0862 15.0574L40.3165 16.5396C40.4845 16.5135 40.657 16.4999 40.8333 16.4999V14.9999ZM45.6666 19.8333C45.6666 17.1639 43.5026 14.9999 40.8333 14.9999V16.4999C42.6742 16.4999 44.1666 17.9923 44.1666 19.8333H45.6666ZM40.8333 24.6666C43.5026 24.6666 45.6666 22.5026 45.6666 19.8333H44.1666C44.1666 21.6742 42.6742 23.1666 40.8333 23.1666V24.6666ZM37.2229 23.0467C38.107 24.0395 39.3974 24.6666 40.8333 24.6666V23.1666C39.8431 23.1666 38.9546 22.7359 38.343 22.0491L37.2229 23.0467ZM23.0783 38.3133L38.3133 23.0783L37.2526 22.0176L22.0176 37.2526L23.0783 38.3133ZM24.6666 40.8333C24.6666 39.3974 24.0395 38.107 23.0467 37.2229L22.0491 38.343C22.7359 38.9546 23.1666 39.8431 23.1666 40.8333H24.6666ZM19.8333 45.6666C22.5026 45.6666 24.6666 43.5026 24.6666 40.8333H23.1666C23.1666 42.6742 21.6742 44.1666 19.8333 44.1666V45.6666ZM14.9999 40.8333C14.9999 43.5026 17.1639 45.6666 19.8333 45.6666V44.1666C17.9923 44.1666 16.4999 42.6742 16.4999 40.8333H14.9999ZM15.0574 40.0862C15.0195 40.3301 14.9999 40.5796 14.9999 40.8333H16.4999C16.4999 40.657 16.5135 40.4845 16.5396 40.3165L15.0574 40.0862ZM15.1666 40.9999C15.4202 40.9999 15.6697 40.9803 15.9137 40.9424L15.6834 39.4602C15.5154 39.4863 15.3428 39.4999 15.1666 39.4999V40.9999ZM10.3333 36.1666C10.3333 38.836 12.4972 40.9999 15.1666 40.9999V39.4999C13.3256 39.4999 11.8333 38.0075 11.8333 36.1666H10.3333ZM15.1666 31.3333C12.4972 31.3333 10.3333 33.4972 10.3333 36.1666H11.8333C11.8333 34.3256 13.3256 32.8333 15.1666 32.8333V31.3333ZM18.777 32.9531C17.8928 31.9603 16.6024 31.3333 15.1666 31.3333V32.8333C16.1567 32.8333 17.0452 33.264 17.6568 33.9507L18.777 32.9531ZM32.9216 17.6866L17.6866 32.9216L18.7472 33.9822L33.9822 18.7472L32.9216 17.6866ZM31.3333 15.1666C31.3333 16.6024 31.9603 17.8928 32.9531 18.777L33.9507 17.6568C33.264 17.0452 32.8333 16.1567 32.8333 15.1666H31.3333ZM36.1666 10.3333C33.4972 10.3333 31.3333 12.4972 31.3333 15.1666H32.8333C32.8333 13.3256 34.3256 11.8333 36.1666 11.8333V10.3333ZM40.9999 15.1666C40.9999 12.4972 38.836 10.3333 36.1666 10.3333V11.8333C38.0075 11.8333 39.4999 13.3256 39.4999 15.1666H40.9999Z" fill="#9EB9BD"/>
</svg>
