<svg width="24" height="24" viewBox="0 0 24 24" fill="none" xmlns="http://www.w3.org/2000/svg">
<path d="M22.2929 23.7071C22.6834 24.0976 23.3166 24.0976 23.7071 23.7071C24.0976 23.3166 24.0976 22.6834 23.7071 22.2929L22.2929 23.7071ZM16.7296 15.3154C16.3391 14.9249 15.706 14.9249 15.3154 15.3154C14.9249 15.706 14.9249 16.3391 15.3154 16.7296L16.7296 15.3154ZM17.6 9.8C17.6 14.1078 14.1078 17.6 9.8 17.6V19.6C15.2124 19.6 19.6 15.2124 19.6 9.8H17.6ZM9.8 17.6C5.49218 17.6 2 14.1078 2 9.8H0C0 15.2124 4.38761 19.6 9.8 19.6V17.6ZM2 9.8C2 5.49218 5.49218 2 9.8 2V0C4.38761 0 0 4.38761 0 9.8H2ZM9.8 2C14.1078 2 17.6 5.49218 17.6 9.8H19.6C19.6 4.38761 15.2124 0 9.8 0V2ZM23.7071 22.2929L16.7296 15.3154L15.3154 16.7296L22.2929 23.7071L23.7071 22.2929Z" fill="white"/>
</svg>
