<svg width="56" height="56" viewBox="0 0 56 56" fill="none" xmlns="http://www.w3.org/2000/svg">
<path d="M39.6667 11.0833C39.6667 13.7597 37.0932 16.3333 34.4167 16.3333C37.0932 16.3333 39.6667 18.9068 39.6667 21.5833C39.6667 18.9068 42.2403 16.3333 44.9167 16.3333C42.2403 16.3333 39.6667 13.7597 39.6667 11.0833Z" stroke="#9EB9BD" stroke-width="1.5" stroke-linecap="round" stroke-linejoin="round"/>
<path d="M39.6667 34.4167C39.6667 37.0932 37.0932 39.6667 34.4167 39.6667C37.0932 39.6667 39.6667 42.2403 39.6667 44.9167C39.6667 42.2403 42.2403 39.6667 44.9167 39.6667C42.2403 39.6667 39.6667 37.0932 39.6667 34.4167Z" stroke="#9EB9BD" stroke-width="1.5" stroke-linecap="round" stroke-linejoin="round"/>
<path d="M20.9999 18.0833C20.9999 23.1388 16.1388 27.9999 11.0833 27.9999C16.1388 27.9999 20.9999 32.8611 20.9999 37.9166C20.9999 32.8611 25.8611 27.9999 30.9166 27.9999C25.8611 27.9999 20.9999 23.1388 20.9999 18.0833Z" stroke="#9EB9BD" stroke-width="1.5" stroke-linecap="round" stroke-linejoin="round"/>
</svg>
