<svg width="48" height="48" viewBox="0 0 48 48" fill="none" xmlns="http://www.w3.org/2000/svg">
<path d="M5.99983 1.67845e-05C2.68612 7.51468e-06 -0.000176078 2.6863 -0.000181055 6.00001L-0.000235128 42C-0.000240106 45.3137 2.68605 48 5.99977 48H42.0003C45.314 48 48.0003 45.3137 48.0003 42L48.0003 6.00011C48.0003 2.68641 45.314 0.000126763 42.0003 0.000117493L5.99983 1.67845e-05ZM37.5004 11.1546L32.1268 36.3908C32.026 36.8863 31.4615 37.1291 31.0327 36.8605L22.7691 31.3798L18.4224 35.4247C18.0354 35.7557 17.4363 35.5946 17.2679 35.1137L14.4378 26.1877L6.838 23.0709C6.25494 22.8052 6.26322 21.8765 6.86088 21.6444L36.528 10.335C37.0624 10.1277 37.6143 10.593 37.5004 11.1546Z" fill="#245E67"/>
</svg>
