<svg width="48" height="48" viewBox="0 0 48 48" fill="none" xmlns="http://www.w3.org/2000/svg">
<g clip-path="url(#clip0_88_3052)">
<path d="M24.9774 10.1633C18.2902 10.1633 12.8518 15.6012 12.8494 22.2855C12.8484 24.5764 13.4894 26.8069 14.7027 28.7371L14.9908 29.1956L13.7663 33.6693L18.3544 32.4657L18.7973 32.7285C20.6584 33.8334 22.7921 34.4174 24.9676 34.4184H24.9725C31.6544 34.4184 37.0927 28.98 37.0956 22.2952C37.0971 19.0558 35.837 16.01 33.5481 13.7187C31.2592 11.4268 28.2154 10.1643 24.9774 10.1633ZM32.1085 27.4975C31.8048 28.3488 30.3486 29.126 29.6487 29.2302C29.0208 29.3241 28.2261 29.363 27.3534 29.0856C26.8244 28.9177 26.1454 28.6933 25.2757 28.3181C21.6192 26.7397 19.2314 23.0584 19.0494 22.8155C18.8674 22.5722 17.5611 20.8395 17.5611 19.0456C17.5611 17.2516 18.5024 16.3702 18.8367 16.0052C19.1706 15.6401 19.5658 15.5491 19.8086 15.5491C20.0515 15.5491 20.2949 15.5516 20.5071 15.5618C20.7309 15.573 21.0312 15.4771 21.3271 16.1872C21.6308 16.9172 22.3599 18.7107 22.4509 18.8932C22.5419 19.0757 22.6028 19.2884 22.4811 19.5318C22.3594 19.7746 22.2991 19.927 22.1166 20.1396C21.9341 20.3523 21.734 20.6147 21.57 20.7782C21.3875 20.9597 21.1977 21.1573 21.4104 21.5219C21.6231 21.8869 22.3546 23.0803 23.4379 24.0464C24.8299 25.2879 26.0043 25.6729 26.3688 25.8554C26.7334 26.0379 26.9461 26.0073 27.1583 25.7644C27.3709 25.5211 28.0694 24.7 28.3122 24.3355C28.5551 23.9709 28.7979 24.0313 29.1323 24.1529C29.4662 24.2746 31.2582 25.156 31.6227 25.3385C31.9873 25.5211 32.2301 25.6121 32.3211 25.7644C32.4121 25.9163 32.4122 26.6463 32.1085 27.4975Z" fill="#245E67"/>
<path d="M48.0001 6.00002C48.0001 2.68631 45.3138 7.96311e-06 42 1.77861e-05L6.00006 0.000124502C2.68636 0.000134325 8.10273e-05 2.68642 7.51019e-05 6.00011L1.07289e-05 42.0001C4.80348e-06 45.3138 2.6863 48.0001 6.00001 48.0001H42.0001C45.3138 48.0001 48.0001 45.3139 48.0001 42.0001V6.00002ZM24.9725 36.8814H24.9667C22.5254 36.8804 20.127 36.2682 17.9967 35.1059L10.2645 37.1345L12.334 29.5761C11.0574 27.364 10.3857 24.8546 10.3872 22.2844C10.3896 14.2422 16.9333 7.69955 24.9725 7.69955C28.8744 7.70101 32.5368 9.21999 35.2905 11.9771C38.0442 14.7338 39.5603 18.3986 39.5583 22.2961C39.5549 30.3383 33.0113 36.8814 24.9725 36.8814Z" fill="#245E67"/>
</g>
<defs>
<clipPath id="clip0_88_3052">
<rect width="48" height="48" fill="white"/>
</clipPath>
</defs>
</svg>
